<svg width="126" height="96" viewBox="0 0 126 96" fill="none" xmlns="http://www.w3.org/2000/svg">
<path d="M19.75 81.91H52L44 95.53H8.43002C7.04111 95.686 5.63885 95.3915 4.43002 94.69C3.64289 94.2387 2.95313 93.6356 2.40066 92.9159C1.8482 92.1961 1.444 91.3739 1.21149 90.4969C0.978975 89.6198 0.922759 88.7054 1.04609 87.8064C1.16943 86.9075 1.46987 86.042 1.93002 85.26L40.93 17.56C41.3802 16.7731 41.981 16.0827 42.6982 15.5281C43.4153 14.9736 44.2347 14.5658 45.1095 14.328C45.9844 14.0903 46.8975 14.0273 47.7966 14.1426C48.6958 14.2579 49.5635 14.5492 50.35 15C51.5703 15.663 52.5294 16.7208 53.07 18L63.13 35.16L81 4.35C81.2114 3.79016 81.5544 3.2894 82 2.89C82.4554 2.50838 82.9478 2.17338 83.47 1.89C84.4004 1.27777 85.4968 0.967006 86.61 0.999999H87C88.1049 0.978853 89.1933 1.27002 90.14 1.84C90.77 2.05 90.98 2.47 91.4 2.68V2.89H91.61C92.01 3.32752 92.3466 3.81898 92.61 4.35L124.89 60.35C125.574 61.4208 125.919 62.6725 125.882 63.9423C125.844 65.2122 125.425 66.4413 124.68 67.47L110.5 92.18C109.934 93.2769 109.055 94.1809 107.974 94.7774C106.893 95.3738 105.66 95.6358 104.43 95.53H60.43L86.82 50.05L94.82 63.67L84.3 81.91H100.65L111.13 63.67L86.82 21.54L71.94 47.32L60.2 67.65H44.27L55.17 49L47 34.75L19.75 81.91Z" fill="url(#paint0_linear_37_115)"/>
<defs>
<linearGradient id="paint0_linear_37_115" x1="34.33" y1="109.52" x2="114.5" y2="3.65999" gradientUnits="userSpaceOnUse">
<stop stop-color="#FE4D80"/>
<stop offset="0.57" stop-color="#FE7F4C"/>
<stop offset="1" stop-color="#FFB118"/>
</linearGradient>
</defs>
</svg>
